<svg class="svg-icon" style="width: 1em; height: 1em;vertical-align: middle;fill: currentColor;overflow: hidden;" viewBox="0 0 1024 1024" version="1.1" xmlns="http://www.w3.org/2000/svg"><path d="M0.01616 807.76c-0.496-22.704 10.448-37.12 29.872-47.888 38.4-21.2 75.792-44.032 115.568-67.328-6.176-18.048-12.512-35.2-18.032-52.704-57.104-180.944 18.944-382.8 179.456-476.144C357.18416 134.4 412.72016 122.672 469.52016 118.4c163.472-12.144 322.896 9.952 477.584 64.752 76.528 27.088 85.888 42.016 70.912 122.192-31.232 167.184-94.528 321.088-188.608 462.4-143.2 215.104-435.792 209.984-596.448 47.248-17.232-17.408-32.736-36.72-50.688-57.024-38.4 22.496-77.12 44.32-114.912 67.696-18.96 11.728-36.704 14.096-55.824 2.32L0.01616 807.76z m955.04-538.848c-7.616-5.184-9.408-6.672-11.44-7.728a82.112 82.112 0 0 0-10.448-4.8c-159.584-55.248-322.976-81.344-490.928-58.208a290.384 290.384 0 0 0-113.152 41.248c-119.36 76.032-173.44 228.976-134.976 367.536 4.208 15.264 9.888 30.112 15.776 47.76 72.352-42.384 141.312-82.672 210.016-123.392 3.792-2.24 6.672-7.92 7.728-12.528 13.984-59.6 26.656-119.504 41.696-178.832 5.456-21.552 30.288-29.76 48.528-18.912s20.704 27.2 15.664 46.56c-9.344 35.712-18.288 71.568-28.8 112.816 12.16-6.4 19.472-9.872 26.448-13.92 39.232-22.816 78.032-46.496 117.712-68.448 28.384-15.696 57.712 1.232 57.6 31.648-0.128 19.2-12.8 28.8-27.2 37.2q-102.624 60-205.152 120.16l-20.64 12.096 0.272 8.736c33.984 8.272 68.112 16.096 101.936 25.024 28.352 7.456 41.104 25.6 34.944 47.6s-23.76 29.168-52.512 21.184c-52.56-14.576-104.928-29.6-157.52-44.064-7.088-1.968-16.528-4.8-22-1.84-36.8 20.256-72.848 42-110.576 64.096 6.8 8.56 11.376 14.592 16.256 20.432 126.496 152.992 384.48 167.536 506.592-17.024a1167.84 1167.84 0 0 0 135.2-279.776C925.07216 385.6 939.21616 325.872 955.07216 268.912z" fill="#9DADB5" /></svg>