<svg class="svg-icon" style="width: 1em; height: 1em;vertical-align: middle;fill: currentColor;overflow: hidden;" viewBox="0 0 1024 1024" version="1.1" xmlns="http://www.w3.org/2000/svg"><path d="M543.792 22.208L512 0l-31.792 22.208C85.808 316.368 82.64 632.704 82.64 646.56 82.64 854.688 276.64 1024 512 1024s429.328-169.296 429.36-377.44c0-330.192-381.632-613.248-397.568-624.352zM512 940.8c-184.464 0-333.936-130.448-333.936-294.16 0-2.816 3.2-274.752 333.936-535.6 85.904 72.128 334 294.128 333.968 535.6C845.936 807.568 696.432 940.8 512 940.8z m-130.4-285.888c-22.256-94.4 60.4-194.288 60.4-194.288l-76.288-49.936c-6.4 5.6-108.176 130.48-79.536 260.88 15.92 69.408 66.768 127.696 149.488 169.296l50.864-72.208c-60.448-30.512-95.392-66.608-104.928-113.744z" fill="#9DADB5" /></svg>