<svg class="svg-icon" style="width: 1em;height: 1em;vertical-align: middle;fill: currentColor;overflow: hidden;" viewBox="0 0 1024 1024" version="1.1" xmlns="http://www.w3.org/2000/svg"><path d="M512 982c-63.44 0-124.99-12.43-182.95-36.94-55.97-23.67-106.23-57.56-149.39-100.72s-77.04-93.42-100.72-149.39C54.43 636.99 42 575.44 42 512s12.43-125 36.94-182.95c23.67-55.97 57.56-106.23 100.72-149.39 43.16-43.16 93.42-77.04 149.39-100.72C387.01 54.43 448.56 42 512 42c63.44 0 124.99 12.43 182.95 36.94 55.97 23.67 106.23 57.56 149.39 100.72 43.16 43.16 77.04 93.42 100.72 149.39C969.57 387.01 982 448.56 982 512s-12.43 124.99-36.94 182.95c-23.67 55.97-57.56 106.23-100.72 149.39s-93.42 77.04-149.39 100.72C636.99 969.57 575.44 982 512 982z m0-900C274.9 82 82 274.9 82 512s192.9 430 430 430 430-192.9 430-430S749.1 82 512 82z"  /><path d="M521.67 765.75c-37.95 0-68.83-30.88-68.83-68.83 0-8.28 6.72-15 15-15s15 6.72 15 15c0 21.41 17.42 38.83 38.83 38.83 8.28 0 15 6.72 15 15s-6.72 15-15 15z"  /><path d="M516 816.97c-29.57 0-59.28-12.22-81.52-33.54-22.51-21.57-35.41-50.6-35.41-79.63 0-12.59 2.41-28.24 6.97-45.26 12.5-46.72 51.57-135.09 109.96-135.09 58.39 0 97.46 88.37 109.96 135.1 4.56 17.02 6.97 32.67 6.97 45.26 0 29.03-12.91 58.06-35.41 79.63-22.24 21.31-51.95 33.53-81.52 33.53z m0-253.53c-10.84 0-24.84 11.46-38.39 31.43-13.57 19.99-25.88 47.66-32.93 74-3.62 13.51-5.61 25.91-5.61 34.92 0 38.29 36.67 73.17 76.93 73.17 40.26 0 76.93-34.88 76.93-73.17 0-9.01-1.99-21.41-5.61-34.91-7.05-26.35-19.36-54.02-32.93-74.01-13.56-19.97-27.55-31.43-38.39-31.43z"  /><path d="M687.8 683.71h-81.16a20 20 0 0 1-19.32-14.83c-7.05-26.35-19.36-54.01-32.93-74-13.56-19.98-27.55-31.43-38.39-31.43s-24.84 11.46-38.39 31.43c-13.57 19.99-25.88 47.66-32.93 74a20 20 0 0 1-19.32 14.83H336.2c-78.28 0-141.97-63.69-141.97-141.98 0-68.81 49.14-126.74 114.94-139.4 4.05-108.38 93.48-195.3 202.83-195.3s198.78 86.92 202.83 195.3c65.8 12.67 114.94 70.59 114.94 139.4 0 78.29-63.69 141.98-141.97 141.98z m-66.28-40h66.28c56.23 0 101.97-45.75 101.97-101.98 0-54.08-42.25-98.8-96.19-101.81-11.02-0.61-19.46-10.04-18.86-21.06 0.17-3.03 0.25-6.01 0.25-8.86 0-89.86-73.11-162.97-162.97-162.97S349.03 320.14 349.03 410c0 2.85 0.08 5.83 0.25 8.85 0.61 11.02-7.83 20.45-18.86 21.07-53.94 3.01-96.19 47.73-96.19 101.81 0 56.23 45.74 101.98 101.97 101.98h74.28c15.91-48.38 52.86-120.27 105.52-120.27s89.61 71.89 105.52 120.27z"  /></svg>