<svg class="svg-icon" style="width: 1em;height: 1em;vertical-align: middle;fill: currentColor;overflow: hidden;" viewBox="0 0 1024 1024" version="1.1" xmlns="http://www.w3.org/2000/svg"><path d="M500.622222 316.871111c-25.031111 0-45.511111 20.48-45.511111 45.511111v591.644445c0 25.031111 20.48 45.511111 45.511111 45.511111 25.031111 0 45.511111-20.48 45.511111-45.511111V362.382222c0-25.031111-20.48-45.511111-45.511111-45.511111z" fill="#B7B7B7" /><path d="M839.68 154.168889C753.777778 71.68 634.311111 24.462222 512.568889 24.462222h-9.102222a465.351111 465.351111 0 0 0-171.804445 34.702222c-55.182222 22.186667-104.675556 54.044444-147.342222 95.004445C87.608889 246.328889 38.684444 374.328889 50.062222 505.173333c11.377778 130.275556 81.351111 249.173333 193.422222 325.404445 19.911111 11.377778 44.373333 5.688889 58.026667-11.946667 13.653333-18.204444 10.808889-42.666667-7.395555-58.026667a372.167111 372.167111 0 0 1-114.346667-125.724444c-28.444444-51.2-43.235556-108.657778-42.666667-166.115556 0-96.142222 39.253333-186.026667 109.795556-253.724444C315.733333 147.911111 412.444444 109.226667 510.862222 109.226667H512c100.124444 0 194.56 37.546667 265.671111 105.244444a352.483556 352.483556 0 0 1 109.795556 253.724445c0 58.026667-14.791111 115.484444-42.666667 166.115555a364.657778 364.657778 0 0 1-114.346667 125.155556c-9.671111 6.826667-15.928889 16.497778-18.204444 27.875555-1.706667 11.377778 1.137778 22.186667 7.964444 31.857778 8.533333 11.377778 22.186667 17.635556 35.84 17.635556 9.102222 0 17.635556-2.275556 25.6-7.964445 111.502222-75.662222 181.475556-194.56 192.853334-324.835555s-38.115556-257.706667-134.826667-349.866667z" fill="#B7B7B7" /></svg>