<svg class="svg-icon" style="width: 1em; height: 1em;vertical-align: middle;fill: currentColor;overflow: hidden;" viewBox="0 0 1024 1024" version="1.1" xmlns="http://www.w3.org/2000/svg"><path d="M543.29518188 805.76342458a27.32825305 27.32825305 0 0 1 9.93335948 37.26162475l-40.73138951 70.85388519a27.08260532 27.08260532 0 0 1-37.00061555 9.84123969 27.32825305 27.32825305 0 0 1-10.02547863-37.09273499l40.73138911-70.86923417a27.08260532 27.08260532 0 0 1 37.0927351-9.99478047zM271.74748347 805.76342458a27.32825305 27.32825305 0 0 1 9.93335892 37.26162475l-40.73138882 70.85388519a27.08260532 27.08260532 0 0 1-37.00061556 9.84123969 27.32825305 27.32825305 0 0 1-10.02549151-37.09273499l40.73138931-70.86923417a27.08260532 27.08260532 0 0 1 37.09274766-9.99478047zM814.84288039 805.76342458a27.32825305 27.32825305 0 0 1 9.93335939 37.26162475l-40.73138941 70.85388519c-7.5383048 12.94253926-24.07343805 17.33348502-37.00061567 9.84123969s-17.41025512-24.07343805-10.01012986-37.09273499l40.71604037-70.86923417a27.08260532 27.08260532 0 0 1 37.09273518-9.99478047z" fill="#1296db" /><path d="M826.71070968 289.24398888c-34.51344178-119.20033691-144.04141594-206.28229925-273.83528459-206.28229895-138.89817827 0-254.59804026 99.77885396-279.96112515 231.84497165h-26.36102446c-110.63338207 1.28964672-199.6344655 91.73390478-199.63446529 202.85858198 0 111.14003901 89.00107049 201.56893538 199.63446529 202.85858152h498.95566497c106.94868096 0.12281762 198.82075186-76.27348137 218.68748331-181.80968504 19.88208005-105.55156551-37.89108618-210.35082732-137.48571408-249.47015116z m86.37573016 212.08570919c0 1.96518058-0.27635821 3.85359094-0.46059722 5.772712 0.01534878 0.42988661 0.13817909 0.82906229 0.13817891 1.25893604 0 6.77065119-1.32035747 13.20353567-3.13199722 19.46755512a75.07594102 75.07594102 0 0 1-2.76353201 15.12265695 62.24087047 62.24087047 0 0 1-1.64277526 8.84330054 76.28882975 76.28882975 0 0 1-10.31718598 21.81655 72.3738304 72.3738304 0 0 1-10.74705961 15.84425082 75.73612619 75.73612619 0 0 1-12.74295154 17.64054111l-0.36847786 0.337767c-0.56806569 0.67553428-1.05934855 1.36641729-1.6581113 2.02658936a63.30023093 63.30023093 0 0 1-7.89142143 9.77983121 71.62152591 71.62152591 0 0 1-14.14006605 10.62424204 77.30211836 77.30211836 0 0 1-19.08372889 12.69689161c-6.07976859 3.57723275-12.72760195 6.44824618-19.71319 8.4441248a76.73406515 76.73406515 0 0 1-15.7828421 6.54036535 75.24483072 75.24483072 0 0 1-16.71935949 2.502523 72.43523891 72.43523891 0 0 1-20.34266509 3.82289336 71.34517987 71.34517987 0 0 1-10.53213527 0.8904706c-2.7635324 0-5.43494479-0.52200585-8.16776672-0.81371299a77.14859023 77.14859023 0 0 1-29.43161272-0.39917602 79.03701301 79.03701301 0 0 1-13.24959508 1.21288901c-3.57723275 0-7.09306924-0.55270386-10.59354467-1.05936072a75.81288405 75.81288405 0 0 1-26.28425374 0.70623171c-5.1892973 0.55270386-10.44000354 0.52200585-15.70607133 0a75.02988131 75.02988131 0 0 1-24.71826152 0.01536209c-3.20876791 0.4145248-6.37147541 0.9825905-9.68771188 0.98259005-3.11664837 0-6.1258281-0.56806569-9.18106758-0.95189222a76.30417924 76.30417924 0 0 1-29.44696164-0.58340151 78.02371237 78.02371237 0 0 1-29.04779889 0.38381394 74.76888453 74.76888453 0 0 1-19.42148285 0.21494948 80.05030157 80.05030157 0 0 1-12.28236661 0.52199306 75.62865774 75.62865774 0 0 1-15.36830454 0.32241811c-3.46976415 0.49129497-6.93954156 1.04399887-10.48606301 1.04399908-4.59053368 0-9.13500778-0.53735473-13.61807356-1.36641719a77.42494836 77.42494836 0 0 1-28.57185233 0.12283022 78.68388471 78.68388471 0 0 1-18.30071356 0.73694299 74.26224014 74.26224014 0 0 1-23.02943946-1.36641748c-1.44317502 0.09211971-2.84030246 0.42988661-4.29882613 0.42988645-2.93240927 0-5.81877172-0.53735473-8.72047079-0.87512162-4.29882653 0.67553428-8.64371244 0.90582007-12.97324944 0.85976021a76.2120596 76.2120596 0 0 1-14.61601266-0.10746843 69.39534859 69.39534859 0 0 1-15.82890104-0.26099712c-1.82700137 0.13817909-3.60794335 0.53735473-5.43494506 0.53735524a69.70241752 69.70241752 0 0 1-7.79930147-0.46058465 71.95929287 71.95929287 0 0 1-23.10619748 1.10540784c-6.04907036 0.69088295-12.12883856 0.47594627-18.17789563-0.26099679a74.63070604 74.63070604 0 0 1-21.37130258-0.90583217 73.72488579 73.72488579 0 0 1-24.47261362-0.66017241 75.951063 75.951063 0 0 1-16.51978444-2.19547931 72.15888076 72.15888076 0 0 1-38.78155728-12.28235425 69.61029807 69.61029807 0 0 1-16.73472136-8.65907439 82.87524244 82.87524244 0 0 1-32.27190347-29.64654947c-4.65194263-4.82083222-8.21382633-10.56283342-11.25371655-16.6733126a77.13324139 77.13324139 0 0 1-13.78696243-23.79707986 71.45264868 71.45264868 0 0 1-9.82589127-36.73961928c0-0.44523556 0.10746821-0.90582007 0.15354115-1.35105506-0.26099648-2.53323363-0.78300251-5.02042028-0.78300252-7.59971366 0-1.79629128 0.4145248-3.48512577 0.5373545-5.25070604a75.45976791 75.45976791 0 0 1 0-11.4840157 73.38711854 73.38711854 0 0 1 2.210816-24.7796699c1.28964672-4.72871286 3.23947845-9.18106765 5.46565582-13.49524317 2.02658949-6.60177427 4.72871286-12.97324969 8.44412439-18.80737055a68.32065149 68.32065149 0 0 1 17.16460796-26.00789556c2.99383077-4.91293895 6.37147541-9.58024326 10.40929267-13.6180729 5.45029403-5.45029403 11.88319101-9.56489444 18.65384271-13.06536972a74.15477234 74.15477234 0 0 1 13.20354793-9.9794186 73.47923828 73.47923828 0 0 1 19.51360273-7.61506284c4.6980023-2.54859522 9.53418371-4.66730406 14.49318213-6.03370851 3.77682052-1.04399887 7.44618538-1.64276216 11.03877984-1.99589147a75.07594102 75.07594102 0 0 1 18.96089872-2.64070182c0.46058431 0 0.89047069 0.12281762 1.35105509 0.13817853a76.71871656 76.71871656 0 0 1 17.39489386-0.81371253 74.00124382 74.00124382 0 0 1 19.26796772 0.53735507 69.24182016 69.24182016 0 0 1 7.1391164 0.15352748c3.05523942-0.39917557 6.11047865-0.66017252 9.21177817-0.66017214 4.25276656 0 8.32130704 0.50664413 12.32841438 1.19752759 2.68676168 0.04605959 5.37353649-0.07677038 8.02959951 0.24564757 0.89047069-0.04605959 1.78094187-0.16887702 2.67141267-0.16888995h0.09211888c0.49129497-3.50047489 1.25893597-6.90883039 2.22617768-10.28647553 0.33776697-4.57518442 0.90582007-9.05823753 1.90377221-13.14212687 0.4145248-2.85565189 0.96724116-5.69594166 1.73488243-8.49018443 0.07677038-0.29170754 0.23029847-0.55270386 0.32240522-0.84441105v-0.01534939l-0.03069795-0.32241754c0-11.66824142 2.97846881-22.99872842 7.99888911-33.3619619 1.67347353-6.27935607 3.82287991-12.42054549 6.90883037-18.11648734a73.54064722 73.54064722 0 0 1 8.52088274-23.24437631c1.01330072-1.75023091 2.19546607-3.28553811 3.36229631-4.85152992 1.01330072-2.22617743 1.79629128-4.54447369 3.03988976-6.6631832 1.59670279-2.71747239 3.42370492-5.25070612 5.38888502-7.69183292 2.77888103-4.60588294 6.00301022-8.93542011 9.65701345-12.86578113 3.93036158-6.35612675 8.70512116-12.02135738 14.21682508-16.84219028a85.36242933 85.36242933 0 0 1 12.12883776-12.80435983 81.66236638 81.66236638 0 0 1 17.67125227-14.03259809c9.71842264-9.71842264 21.7244306-17.33348502 34.68231881-21.27919522a172.65932817 172.65932817 0 0 1 26.65273233-12.46660575 74.76888453 74.76888453 0 0 1 9.38065467-3.14734607 274.418699 274.418699 0 0 1 56.14575376-11.11553785c2.62535306-0.26099648 5.17394853-0.15352853 7.70718148-0.01536118 2.04193847-0.16887702 3.97642085-0.6294745 6.04907035-0.62946153 5.08182864 0 9.96406982 0.8137009 14.76954028 1.88841015 2.01124079-0.16887702 3.97642085-0.59876385 6.01835981-0.59876362 8.90470928 0 17.30277438 1.64276216 25.13278649 4.45235521 7.38477684 0.90582007 14.40107539 2.96312025 20.9414281 5.81877112 9.61095378 1.68882267 18.69990214 5.32747658 26.92907758 10.47071423 4.86689179 1.64276216 9.58024326 3.76147137 14.04795935 6.38682466 0.92118197 0.53735473 1.68882267 1.28964672 2.56393223 1.90377172a76.33488961 76.33488961 0 0 1 22.47673495 14.1861263c0.38382671 0.19958802 0.79835144 0.32241796 1.18217791 0.55270396 5.77271195 3.37764492 10.73171062 7.78395247 15.30689539 12.55871196 4.12994919 3.22411676 7.86071019 6.81671124 11.19229594 10.77778319 2.73282157 2.56394424 5.32747658 5.23535726 7.66112195 8.15241755 8.15241759 6.90883039 14.8923709 15.33760611 19.52896439 24.96389658 3.73077362 4.42165674 6.70924245 9.53418371 9.28853621 14.93843077 4.9743607 7.10841838 8.98147974 14.92306879 11.29977603 23.3671935 0.07677038 0.29170754 0.07677038 0.58341465 0.153528 0.87512144 3.08593728 5.78806119 5.40423403 11.9599491 6.98558851 18.37748419 1.01330072 2.36435661 1.58135436 4.91293895 2.34900746 7.38476406 1.58135436 4.06852778 2.91706048 8.24453686 3.71541153 12.60478459 1.87306122 4.26811587 3.51582416 8.64371244 4.51377604 13.29565525 0.9825905 0.32241796 1.93447017 0.79835144 2.90169895 1.15146784 6.92417926 1.65812416 13.63342203 4.23741805 19.89742946 7.64577307 0.61411234 0.29170754 1.28964672 0.4145248 1.88842254 0.70623215 5.80342245 2.04193847 11.49936415 4.60588294 16.9189477 8.29059666 5.25070612 2.36435661 10.27112623 5.14323767 14.84631094 8.61301402a71.39123979 71.39123979 0 0 1 17.70195004 12.92719029c0.99793922 0.99793922 1.78094187 2.22617743 2.71747208 3.28552553 7.7378924 5.74200112 14.29359455 12.88113007 19.26796788 20.92607936 4.25276656 4.52912504 7.76859096 9.5955924 10.79311959 14.96912885 3.91499969 5.63453289 7.00095014 12.03671922 9.2885358 19.09907763 0.69088295 1.53529447 1.13611853 3.13199732 1.71953335 4.69800195 3.40835555 6.21794747 5.97230016 12.77366195 7.67648364 19.40613423 3.66935232 8.76654258 5.89552954 18.23930501 5.89553018 28.20337495 0 2.30294784-0.29170754 4.54447369-0.53735529 6.78601314 0.32241796 2.74818323 0.85976025 5.43494479 0.85977276 8.24453626 0 0.72159386-0.19958802 1.39711516-0.23029855 2.13405811 0.04605959 1.10540775 0.18423851 2.19546607 0.18423901 3.31623645z" fill="#1296db" /><path d="M118.58640844 451.17159366a68.32065149 68.32065149 0 0 1 17.16459539-26.00790812c2.99383077-4.91293895 6.37147541-9.58024326 10.40930571-13.6180607 5.45029403-5.45029403 11.88319101-9.56489444 18.65384194-13.06536918a74.15477234 74.15477234 0 0 1 13.2035358-9.97941918 73.47923828 73.47923828 0 0 1 19.5136153-7.61506225c4.6980023-2.54859522 9.53418371-4.66730406 14.49318225-6.0337089 3.77682052-1.04399887 7.44618538-1.64276216 11.0387801-1.99589108a75.07594102 75.07594102 0 0 1 18.96089865-2.6407025c0.7676537 0 1.50458345 0.21493704 2.27223679 0.23028646 2.1647687-0.33776697 4.29882653-0.92118197 6.4789444-1.0900591H246.50721607c-68.27459185 0.93653034-125.04980646 48.36180065-141.03223602 111.99979898 1.21288833-3.94571041 2.82494096-7.7378924 4.66730425-11.39188308 2.04193847-6.60177427 4.74406198-12.95788831 8.44412414-18.79202135zM102.72680919 532.60366169c-0.26099648-2.53323363-0.78300251-5.02042028-0.78300256-7.59971394 0-1.73488183 0.39917557-3.34694656 0.52199365-5.0511184a71.79041578 71.79041578 0 0 1-0.07675794-11.0541283 65.55711935 65.55711935 0 0 1-0.23029879-9.82589099c-0.7676537 6.09511746-1.28964672 12.28236692-1.28964623 18.5924335 0 10.34789651 1.07470972 20.45013308 3.10129922 30.19925357a79.39012934 79.39012934 0 0 1-1.38176615-13.90976807c-0.01534878-0.44523556 0.09211971-0.90582007 0.1381788-1.35106737zM241.76315407 663.93283685a75.951063 75.951063 0 0 1-16.51977186-2.19547926 72.15888076 72.15888076 0 0 1-38.78156991-12.28235429 69.61029807 69.61029807 0 0 1-16.73472112-8.65907416 82.87524244 82.87524244 0 0 1-32.27190355-29.64654993c-4.65194263-4.82083222-8.21382633-10.56283342-11.25371626-16.67331229a76.93365355 76.93365355 0 0 1-13.75625206-23.67425001 69.85594601 69.85594601 0 0 1-6.5864126-15.46042367c16.44301474 62.9471154 72.89582344 109.71221307 140.67911969 110.63338195h38.93508563a74.89171478 74.89171478 0 0 1-18.62313116-1.50458339 73.34105923 73.34105923 0 0 1-25.0867268-0.53735495zM394.2794056 664.93077597c-2.93240927 0-5.81877172-0.53735473-8.72048303-0.87512174-4.29882653 0.67553428-8.64371244 0.90582007-12.97323736 0.85977281a76.2120596 76.2120596 0 0 1-14.61601235-0.10746801 69.39534859 69.39534859 0 0 1-15.82890164-0.26100948c-1.82700137 0.13817909-3.60794335 0.53735473-5.4349447 0.53735473-2.54859522 0-5.08182864-0.15352853-7.61506261-0.42988597-2.31829701 0.46058431-4.57518442 1.07470972-6.95489001 1.32035688h84.25700845c-2.62535306-0.29170754-5.3121277-0.93653034-7.99888931-1.47388564-1.36641729 0.10746821-2.71747239 0.42988661-4.11458744 0.42988642zM894.87783294 573.61140872a72.15888076 72.15888076 0 0 1-10.71636149 15.82888924 75.88965442 75.88965442 0 0 1-13.12677835 17.99366969c-0.53735473 0.64482334-1.02864999 1.32035747-1.59670271 1.94981849-2.30294784 3.43906639-4.85153017 6.75530205-7.96819161 9.85660208a71.62152591 71.62152591 0 0 1-14.14006603 10.62424204 77.30211836 77.30211836 0 0 1-19.08372894 12.69689161c-6.07976859 3.57723275-12.72760195 6.44824618-19.7131902 8.4441248a76.73406515 76.73406515 0 0 1-15.78282928 6.54036535 75.24483072 75.24483072 0 0 1-16.71937248 2.502523 72.43523891 72.43523891 0 0 1-20.34266467 3.82289336 71.34517987 71.34517987 0 0 1-10.53212278 0.8904706c-2.7635324 0-5.43494479-0.52200585-8.16777911-0.81371299a77.14859023 77.14859023 0 0 1-29.43161281-0.39917602 79.03701301 79.03701301 0 0 1-13.2495953 1.21288901c-3.57723275 0-7.09306924-0.55270386-10.59354423-1.05936072a75.81288405 75.81288405 0 0 1-26.28425404 0.70623171c-5.1892973 0.55270386-10.44000354 0.52200585-15.7060715 0a75.02988131 75.02988131 0 0 1-24.71826125 0.01536209c-3.20876791 0.4145248-6.37147541 0.9825905-9.68771229 0.98259005-3.11664837 0-6.1258281-0.56806569-9.18106701-0.95189222a76.30417924 76.30417924 0 0 1-29.44696207-0.58340151 78.02371237 78.02371237 0 0 1-29.04778562 0.38381394 74.76888453 74.76888453 0 0 1-19.42149583 0.21494948 80.17313194 80.17313194 0 0 1-12.29771594 0.52199306 75.62865774 75.62865774 0 0 1-15.36830483 0.32241811 72.12818282 72.12818282 0 0 1-6.57106324 0.66017222h259.52634112c66.2787004 0.09211971 124.83486983-38.73549791 152.08636467-96.67755469a63.43841045 63.43841045 0 0 1-2.71747218 4.31418822zM912.74867263 481.20196997c-0.01534878 2.14941969-0.29170754 4.22206898-0.52200547 6.32541617 0.32241796 2.77888103 0.87512181 5.51171535 0.87512166 8.36736683 0 0.72159386-0.19958802 1.39711516-0.23029853 2.10334751 0.09211971 1.10540775 0.23029847 2.19546607 0.23029853 3.33159759 0 1.96518058-0.27635821 3.85359094-0.46058487 5.772712 0.01534878 0.42988661 0.13817909 0.82906229 0.13816693 1.25893604 0 6.78600047-1.33570634 13.23424602-3.14734657 19.49825326-0.24564741 3.0705885-0.32241796 6.15653847-0.95189244 9.11965856 0.72159386-2.82494096 1.6120649-5.52706422 2.1647689-8.41342629 2.97846881-15.95171895 3.39300659-31.84202906 1.90377186-47.36386167zM849.27955164 364.78052702c2.08799794 1.67347353 4.14529825 3.50047489 6.12582812 5.49635409 0.99793922 0.99793922 1.78094187 2.22617743 2.71747217 3.28552539 7.7378924 5.74200112 14.29359455 12.88113007 19.26796793 20.92607886 4.25276656 4.52912504 7.76859096 9.5955924 10.79311982 14.96912863 3.91499969 5.63453289 7.00095014 12.03671922 9.28853555 19.09907767 0.78300251 1.71953286 1.39711516 3.48512577 2.05729978 5.25070639 3.76147137 7.03164787 6.57106331 14.47783316 8.15241788 21.9700783 0.61411234 1.59670279 1.42782564 3.08593728 1.90377207 4.75942355a168.62149858 168.62149858 0 0 0-60.30641332-95.75637288zM542.29724234 137.80244717c-106.4113255 4.89758993-195.68875492 82.3071893-216.07747899 187.33674942h0.03069782l-8.50553324 44.21650252h-41.89820558c1.3817662 0.12281762 2.80959219 0.50664413 4.19134517 0.70624481a69.24182016 69.24182016 0 0 1 7.13912885 0.15352783c3.05523942-0.39917557 6.11047865-0.66017252 9.2117785-0.66018476 4.25276656 0 8.32130704 0.50664413 12.32841357 1.19754002 2.68676168 0.04605959 5.37353649-0.07677038 8.0295999 0.24564713 0.89047069-0.04605959 1.78094187-0.16887702 2.6714132-0.16888964h0.09211903c0.49129497-3.50047489 1.25893597-6.90883039 2.22617726-10.28647495 0.33776697-4.57518442 0.90582007-9.05823753 1.9037595-13.14212745 0.4145248-2.85565189 0.96724116-5.69594166 1.73489475-8.49018437 0.07677038-0.29170754 0.23029847-0.55270386 0.32240531-0.8444111v-0.01536165l-0.03071064-0.32240527c0-11.66824142 2.97846881-22.99872842 7.99888928-33.36197413 1.67347353-6.27935607 3.82287991-12.42054549 6.90883071-18.11648749a73.54064722 73.54064722 0 0 1 8.52089476-23.24436343c1.01330072-1.75023091 2.19546607-3.28553811 3.36229612-4.85154277 1.01330072-2.22617743 1.79629128-4.54447369 3.03989021-6.66318327 1.59670279-2.71747239 3.42370492-5.25070612 5.38888525-7.69182035 2.77888103-4.60588294 6.00301022-8.93542011 9.65700108-12.86578124 3.93036158-6.35612675 8.70512116-12.02135738 14.21683669-16.8421896a85.36242933 85.36242933 0 0 1 12.12883868-12.80436034 81.66236638 81.66236638 0 0 1 17.67125188-14.03261015c9.71842264-9.71842264 21.7244306-17.33348502 34.68231895-21.27919557a172.65932817 172.65932817 0 0 1 26.65273192-12.46659298 74.76888453 74.76888453 0 0 1 9.38065529-3.14735888 274.418699 274.418699 0 0 1 56.14575338-11.11553729c2.62535306-0.26099648 5.17394853-0.15352853 7.70718179-0.01534918 2.04193847-0.16887702 3.97642085-0.6294745 6.04905757-0.62947442 5.08182864 0 9.96406982 0.8137009 14.76955354 1.88841037 2.01124079-0.16887702 3.97642085-0.59876385 6.01834674-0.59876419 8.90470928 0 17.30277438 1.64276216 25.13278647 4.45235513 7.38477684 0.90582007 14.40107539 2.96312025 20.94142813 5.81877135 9.61095378 1.68882267 18.69990214 5.32747658 26.92909016 10.47071462 4.86689179 1.64276216 9.58024326 3.76147137 14.04794656 6.38683731 0.92118197 0.53735473 1.68882267 1.28964672 2.5639444 1.90375925a76.33488961 76.33488961 0 0 1 22.47672267 14.18612594c0.38382671 0.19958802 0.79835144 0.32241796 1.18217853 0.55271668 5.77271195 3.37764492 10.73171062 7.78395247 15.30689518 12.55871224 4.12994919 3.22411676 7.86071019 6.81671124 11.19230793 10.79313205 2.7942427 2.61000394 5.45029403 5.35818741 7.84536131 8.33664394 3.56188392 3.00917947 6.93954156 6.23329647 9.88729912 9.8719502-45.10697352-56.8826961-115.42350367-90.90484248-191.17497871-87.41971634zM752.21818272 255.03760329c4.9743607 7.10841838 8.98147974 14.92306879 11.29977669 23.36719357 0.07677038 0.29170754 0.07677038 0.58341465 0.15352816 0.87512212 3.08593728 5.78806119 5.40423403 11.9599491 6.9855882 18.37748389 1.01330072 2.36435661 1.58135436 4.91293895 2.34900741 7.38477676 1.58135436 4.06852778 2.91706048 8.24453686 3.71541197 12.60477205 1.87306122 4.26811587 3.51582416 8.64371244 4.51376327 13.29565523 0.9825905 0.32241796 1.93447017 0.79835144 2.90171154 1.15148012 6.58641269 1.58135436 12.95788831 3.97642085 18.96089876 7.1391164 0.52200585 0.24564741 1.12076954 0.33776697 1.64276278 0.59876329 1.33570634 0.39917557 2.71747239 0.59876385 4.02248062 1.10542042-0.66017252-0.27635821-1.25893597-0.64482334-1.93447021-0.90583212l-24.85644091-9.82589096-7.46153378-25.7161886a231.5225543 231.5225543 0 0 0-39.02720529-76.64194582c2.85565189 3.83824178 5.35818741 7.92211901 7.41547463 12.23629414 3.76147137 4.42165674 6.73994059 9.54953251 9.31924616 14.95377951z" fill="#1296db" /></svg>