<svg class="svg-icon" style="width: 1.5em; height: 1em;vertical-align: middle;fill: currentColor;overflow: hidden;" viewBox="0 0 1536 1024" version="1.1" xmlns="http://www.w3.org/2000/svg"><path d="M351.904812 512.089589H1087.608049a256.044794 256.044794 0 1 0-256.044794-256.044795 32.072791 32.072791 0 0 0 63.966404 0v-1.43342A192.07839 192.07839 0 1 1 1087.608049 448.123185H351.904812a32.072791 32.072791 0 1 0 0 63.966404z" fill="#CCD1D9" /><path d="M1343.832021 576.055993H32.072791a32.072791 32.072791 0 1 0 0 63.966404H1343.832021a128.111986 128.111986 0 1 1-127.932808 128.649519 32.072791 32.072791 0 0 0-63.966405 0A192.07839 192.07839 0 1 0 1343.832021 576.055993z" fill="#E6E9ED" /><path d="M927.60245 703.988801H223.972003a32.072791 32.072791 0 1 0 0 63.966405h703.630447a96.039195 96.039195 0 1 1-96.039195 97.293438 3.046019 3.046019 0 0 0 0-1.254243 32.072791 32.072791 0 1 0-63.966405 0 160.005599 160.005599 0 1 0 160.0056-160.0056z" fill="#AAB2BC" /></svg>